:SAMPLES-PER-SECOND 30
:FULLY-SPECIFIED
:DEGREES
1739
root  59.3286 38.653 8.97909 -179.202 18.7042 174.791
RightUpLeg  -19.7354 -39.0446 -7.9296
RightLeg  20.3151 -17.9704 -4.94734
RightFoot  -9.06528 -0.0532639 -0.402948
RightToes  7.56698e-010 0 -3.6325e-017
Spine  20.7761 -0.703268 1.50132
Spine1  10.931 -1.90962 4.77683
HEad  -43.5518 -3.5612 -6.38517
LeftShoulder1  1.83261 -2.78014 -22.8782
LeftArm  -22.5502 16.7316 -52.478
LeftForeArm  24.6366 -21.3139 -3.11471
LeftHand  -0.0466931 6.09304 -1.8387
RightShoulder  110.702 -70.8678 -138.266
RightArm  115.934 9.65999 143.286
RightForeArm  -81.7422 33.7782 9.79515
RightHand  -1.61008 11.6515 -11.3093
LeftUpLeg  -16.0742 37.313 7.4215
LeftLeg  24.5845 7.74263 4.18158
LeftFoot  -2.94501 0.170612 -2.07563
LeftToes  -2.88401e-009 5.30678e-011 -1.08654e-010
1740
root  58.8326 38.5717 9.23814 -178.993 15.4164 175.362
RightUpLeg  -20.4934 -41.9703 -7.37975
RightLeg  20.3311 -15.7214 -5.35026
RightFoot  -8.23932 -0.0427206 -0.474878
RightToes  7.56698e-010 0 -3.6325e-017
Spine  21.2895 -0.391743 0.0242594
Spine1  10.7055 -2.11803 5.81823
HEad  -42.9264 -4.18187 -2.02832
LeftShoulder1  1.7272 -2.35915 -23.1845
LeftArm  -22.1768 16.304 -52.615
LeftForeArm  28.4615 -27.8936 -4.49862
LeftHand  -0.0422841 6.50302 -0.59273
RightShoulder  113.342 -75.7666 -136.194
RightArm  121.42 13.0436 140.547
RightForeArm  -81.9714 33.0278 9.57497
RightHand  -1.39811 10.419 -10.6194
LeftUpLeg  -15.2502 43.1678 6.91463
LeftLeg  21.9835 13.2166 6.13198
LeftFoot  -2.70514 0.0679173 -0.753631
LeftToes  -2.88401e-009 5.30678e-011 -1.08654e-010
1741
root  58.2431 38.3739 9.46185 -178.527 11.5704 175.99
RightUpLeg  -21.9395 -46.3789 -6.71355
RightLeg  21.1279 -12.5481 -5.55741
RightFoot  -7.93302 -0.0478389 -0.211442
RightToes  7.56698e-010 0 -3.6325e-017
Spine  21.4852 -0.388021 -1.59571
Spine1  10.4071 -2.79835 7.23768
HEad  -42.6145 -5.04296 3.34966
LeftShoulder1  1.62881 -1.9944 -23.3565
LeftArm  -21.3787 15.9869 -53.0798
LeftForeArm  31.3845 -34.2217 -5.80807
LeftHand  -0.0303395 6.06995 0.337063
RightShoulder  113.473 -76.7748 -135.421
RightArm  123.361 13.7828 140.407
RightForeArm  -82.3396 33.1265 9.5998
RightHand  -1.41955 10.9978 -10.4198
LeftUpLeg  -14.9277 43.8921 6.14724
LeftLeg  19.9714 17.8637 7.29725
LeftFoot  -1.48657 0.136832 -1.15668
LeftToes  -2.88401e-009 5.30678e-011 -1.08654e-010
1742
root  57.6064 38.1102 9.63149 -178.358 7.71394 176.616
RightUpLeg  -21.7539 -46.2687 -8.40117
RightLeg  22.796 -13.5027 -6.36002
RightFoot  -7.61527 -0.0988797 1.48258
RightToes  7.56698e-010 0 -3.6325e-017
Spine  21.7066 -0.191357 -3.61711
Spine1  10.3309 -3.59415 9.46453
HEad  -42.206 -4.25293 7.65551
LeftShoulder1  1.56334 -1.70779 -23.7479
LeftArm  -19.8417 14.9437 -53.0627
LeftForeArm  33.2389 -39.3646 -7.09042
LeftHand  -0.0285168 5.1055 0.715026
RightShoulder  112.936 -77.6282 -134.185
RightArm  125.424 14.2903 140.353
RightForeArm  -84.2205 33.459 9.67292
RightHand  -1.48133 11.7728 -10.36
LeftUpLeg  -15.3351 42.9611 5.58995
LeftLeg  19.3257 17.7316 6.73405
LeftFoot  0.7229 0.620298 -6.01039
LeftToes  -2.88401e-009 5.30678e-011 -1.08654e-010
1743
root  57.0666 37.8996 9.81641 -178.011 3.26375 176.41
RightUpLeg  -21.3572 -46.2578 -10.9755
RightLeg  23.6556 -11.9499 -5.88659
RightFoot  -6.9272 -0.155775 2.86336
RightToes  7.56698e-010 0 -3.6325e-017
Spine  21.5964 0.266884 -7.46964
Spine1  10.4958 -4.80641 12.9526
HEad  -42.5412 -1.40562 11.9158
LeftShoulder1  1.45692 -1.28901 -24.1595
LeftArm  -18.0984 13.2132 -52.9879
LeftForeArm  34.083 -43.7485 -8.39364
LeftHand  -0.0276456 5.34356 1.28369
RightShoulder  113.298 -81.2843 -131.19
RightArm  129.621 16.2531 138.691
RightForeArm  -87.1414 33.4955 9.64454
RightHand  -1.81311 12.2832 -12.2628
LeftUpLeg  -20.24 43.896 1.8817
LeftLeg  22.3082 12.1914 5.81932
LeftFoot  0.424454 0.0741907 -0.74175
LeftToes  -2.88401e-009 5.30678e-011 -1.08654e-010
1744
root  56.5522 37.7938 9.87315 -177.539 -2.24037 176.018
RightUpLeg  -19.1381 -45.8969 -14.4783
RightLeg  22.1898 -8.39314 -3.97161
RightFoot  -4.49038 -0.407136 5.96416
RightToes  7.56698e-010 0 -3.6325e-017
Spine  20.9527 0.28035 -10.5088
Spine1  10.5992 -6.07179 15.6705
HEad  -42.0925 3.05553 16.7009
LeftShoulder1  1.35082 -0.859124 -24.7669
LeftArm  -16.4672 11.0901 -52.7699
LeftForeArm  35.1145 -46.7088 -9.35417
LeftHand  -0.0271373 5.05216 0.625767
RightShoulder  109.96 -83.4734 -125.999
RightArm  131.437 16.6364 137.064
RightForeArm  -88.2398 32.6958 9.39945
RightHand  -1.69168 11.7588 -11.7844
LeftUpLeg  -22.6626 40.6891 -1.04733
LeftLeg  23.0319 10.3675 5.13447
LeftFoot  -0.240215 -0.0322774 0.350178
LeftToes  -2.88401e-009 5.30678e-011 -1.08654e-010
1745
root  56.1357 37.8396 9.85483 -177.763 -6.54123 176.399
RightUpLeg  -14.8919 -41.3654 -17.4495
RightLeg  18.6951 -6.27798 -2.53834
RightFoot  -0.313349 -0.933477 9.7557
RightToes  7.56698e-010 0 -3.6325e-017
Spine  20.5614 0.648927 -12.4564
Spine1  11.0452 -6.43166 17.0625
HEad  -41.0415 7.9622 19.8094
LeftShoulder1  1.18701 -0.226098 -25.6048
LeftArm  -15.5485 9.28079 -52.8782
LeftForeArm  35.5486 -47.9797 -9.81877
LeftHand  -0.0286191 4.98832 0.0175273
RightShoulder  107.853 -86.1898 -121.335
RightArm  136.023 17.5992 135.492
RightForeArm  -90.899 32.6304 9.33363
RightHand  -1.53431 11.5037 -10.876
LeftUpLeg  -22.8849 40.1011 -2.08548
LeftLeg  22.4169 7.30839 3.65858
LeftFoot  -1.06403 -0.0788529 0.942454
LeftToes  -2.88401e-009 5.30678e-011 -1.08654e-010
1746
root  55.762 37.9501 9.75305 -177.989 -11.1585 176.285
RightUpLeg  -10.6911 -36.8226 -20.3652
RightLeg  15.8663 -2.78997 -0.742961
RightFoot  -0.299646 -1.15848 11.9325
RightToes  7.56698e-010 0 -3.6325e-017
Spine  20.2417 0.800635 -14.3935
Spine1  11.0285 -6.87459 18.1231
HEad  -41.1112 8.82942 19.9113
LeftShoulder1  0.994928 0.406408 -26.025
LeftArm  -15.4658 9.56521 -53.0901
LeftForeArm  35.1419 -49.3089 -10.3776
LeftHand  -0.0276304 4.97664 0.394155
RightShoulder  95.5063 -87.6117 -107.605
RightArm  140.817 17.6524 135.064
RightForeArm  -95.4803 34.0785 9.65393
RightHand  -1.91616 12.0608 -13.097
LeftUpLeg  -21.9508 37.1006 -2.77154
LeftLeg  21.2632 5.88696 2.77626
LeftFoot  -1.93733 -0.00219328 0.16299
LeftToes  -2.88401e-009 5.30678e-011 -1.08654e-010
1747
root  55.4089 38.1222 9.47337 -177.779 -15.2766 176.447
RightUpLeg  -7.82614 -29.9545 -21.5658
RightLeg  14.106 0.284366 0.609547
RightFoot  -0.067312 -1.18989 12.035
RightToes  7.56698e-010 0 -3.6325e-017
Spine  18.4903 1.18095 -16.7718
Spine1  11.4704 -7.46842 20.7802
HEad  -40.7475 9.2886 19.0871
LeftShoulder1  0.709606 1.46111 -28.5886
LeftArm  -14.8999 9.72711 -51.4936
LeftForeArm  32.7889 -49.405 -10.5964
LeftHand  -0.0252821 4.85925 0.691261
RightShoulder  91.0484 -89.8501 -100.989
RightArm  146.033 18.992 134.651
RightForeArm  -93.7994 35.747 10.1816
RightHand  -1.74137 11.2157 -12.4616
LeftUpLeg  -20.5718 32.6771 -2.41145
LeftLeg  19.7912 6.392 1.9499
LeftFoot  -2.96215 0.12437 -1.47063
LeftToes  -2.88401e-009 5.30678e-011 -1.08654e-010
1748
root  55.049 38.3484 9.14955 -178.164 -19.9305 176.942
RightUpLeg  -5.11155 -24.7907 -21.476
RightLeg  14.4042 0.11221 0.199759
RightFoot  1.26395 -1.29624 11.7695
RightToes  7.56698e-010 0 -3.6325e-017
Spine  16.9083 1.35469 -18.5331
Spine1  12.4022 -8.34205 23.5413
HEad  -40.7475 10.639 19.0838
LeftShoulder1  0.418268 2.37406 -31.0382
LeftArm  -14.534 9.84977 -49.9367
LeftForeArm  30.0855 -48.7911 -10.5463
LeftHand  -0.0288363 5.29116 1.40975
RightShoulder  -39.9727 -86.0694 33.4101
RightArm  150.968 21.808 133.567
RightForeArm  -89.3073 37.0448 10.6778
RightHand  -1.24847 11.2173 -9.10913
LeftUpLeg  -17.957 25.5324 -0.617722
LeftLeg  17.7867 9.35516 0.956755
LeftFoot  -4.03945 0.238576 -3.34565
LeftToes  -2.88401e-009 5.30678e-011 -1.08654e-010
1749
root  54.6984 38.5286 8.82411 -178.789 -24.294 176.795
RightUpLeg  -2.7477 -22.1083 -21.7379
RightLeg  16.5842 -3.3797 -1.35754
RightFoot  1.5048 -1.53114 13.618
RightToes  7.56698e-010 0 -3.6325e-017
Spine  15.993 1.4562 -20.6412
Spine1  13.0465 -9.16421 25.4266
HEad  -40.7344 11.136 18.3782
LeftShoulder1  0.0115914 3.47916 -33.3608
LeftArm  -14.602 10.0208 -47.6463
LeftForeArm  27.8064 -47.3261 -10.1247
LeftHand  -0.0287107 5.5026 1.36322
RightShoulder  -46.1547 -80.9853 43.7987
RightArm  154.645 25.4359 131.738
RightForeArm  -85.5734 37.8316 10.9917
RightHand  -1.37296 11.7973 -9.6405
LeftUpLeg  -15.2931 17.2079 0.368587
LeftLeg  15.8983 13.7905 0.516677
LeftFoot  -4.66234 0.295786 -4.58279
LeftToes  -2.88401e-009 5.30678e-011 -1.08654e-010
